<svg xmlns="http://www.w3.org/2000/svg" viewBox="0 0 1240 2545" width="1240" height="2545">
  <rect x="0" y="0" width="1240" height="2545" fill="#ffffff"/>
  <defs><marker id="fa" viewBox="0 0 10 10" refX="9" refY="5" markerWidth="8" markerHeight="8" orient="auto"><polygon points="0,1 10,5 0,9" fill="#111"/></marker></defs>
  <path d="M420,58 V87" fill="none" stroke="#111" stroke-width="1" marker-end="url(#fa)"/>
  <path d="M420,137 V162" fill="none" stroke="#111" stroke-width="1" marker-end="url(#fa)"/>
  <path d="M300,205 H245" fill="none" stroke="#111" stroke-width="1" marker-end="url(#fa)"/>
  <path d="M420,248 V277" fill="none" stroke="#111" stroke-width="1" marker-end="url(#fa)"/>
  <path d="M140,230 V430 H420" fill="none" stroke="#111" stroke-width="1" marker-end="url(#fa)"/>
  <path d="M540,320 H775" fill="none" stroke="#111" stroke-width="1" marker-end="url(#fa)"/>
  <path d="M420,363 V575" fill="none" stroke="#111" stroke-width="1" marker-end="url(#fa)"/>
  <path d="M880,343 V372" fill="none" stroke="#111" stroke-width="1" marker-end="url(#fa)"/>
  <path d="M1000,415 H1093" fill="none" stroke="#111" stroke-width="1" marker-end="url(#fa)"/>
  <path d="M880,458 V480" fill="none" stroke="#111" stroke-width="1" marker-end="url(#fa)"/>
  <path d="M880,530 V545 H420" fill="none" stroke="#111" stroke-width="1" marker-end="url(#fa)"/>
  <path d="M262,600 H315" fill="none" stroke="#111" stroke-width="1" marker-end="url(#fa)"/>
  <path d="M420,625 V657" fill="none" stroke="#111" stroke-width="1" marker-end="url(#fa)"/>
  <path d="M300,700 H140 V765" fill="none" stroke="#111" stroke-width="1" marker-end="url(#fa)"/>
  <path d="M420,743 V787" fill="none" stroke="#111" stroke-width="1" marker-end="url(#fa)"/>
  <path d="M140,815 V853" fill="none" stroke="#111" stroke-width="1" marker-end="url(#fa)"/>
  <path d="M140,907 V932" fill="none" stroke="#111" stroke-width="1" marker-end="url(#fa)"/>
  <path d="M260,975 H290 V1068" fill="none" stroke="#111" stroke-width="1" marker-end="url(#fa)"/>
  <path d="M140,1018 V1055" fill="none" stroke="#111" stroke-width="1" marker-end="url(#fa)"/>
  <path d="M540,830 H775" fill="none" stroke="#111" stroke-width="1" marker-end="url(#fa)"/>
  <path d="M985,830 H1053" fill="none" stroke="#111" stroke-width="1" marker-end="url(#fa)"/>
  <path d="M420,873 V917" fill="none" stroke="#111" stroke-width="1" marker-end="url(#fa)"/>
  <path d="M540,960 H775" fill="none" stroke="#111" stroke-width="1" marker-end="url(#fa)"/>
  <path d="M985,960 H1053" fill="none" stroke="#111" stroke-width="1" marker-end="url(#fa)"/>
  <path d="M420,1003 V1050" fill="none" stroke="#111" stroke-width="1" marker-end="url(#fa)"/>
  <path d="M420,1100 V1153" fill="none" stroke="#111" stroke-width="1" marker-end="url(#fa)"/>
  <path d="M420,1217 V1257" fill="none" stroke="#111" stroke-width="1" marker-end="url(#fa)"/>
  <path d="M540,1300 H765" fill="none" stroke="#111" stroke-width="1" marker-end="url(#fa)"/>
  <path d="M420,1343 V1385" fill="none" stroke="#111" stroke-width="1" marker-end="url(#fa)"/>
  <path d="M880,1332 V1368" fill="none" stroke="#111" stroke-width="1" marker-end="url(#fa)"/>
  <path d="M420,1435 V1472" fill="none" stroke="#111" stroke-width="1" marker-end="url(#fa)"/>
  <path d="M540,1515 H765" fill="none" stroke="#111" stroke-width="1" marker-end="url(#fa)"/>
  <path d="M420,1558 V1600" fill="none" stroke="#111" stroke-width="1" marker-end="url(#fa)"/>
  <path d="M880,1543 V1583" fill="none" stroke="#111" stroke-width="1" marker-end="url(#fa)"/>
  <path d="M420,1650 V1697" fill="none" stroke="#111" stroke-width="1" marker-end="url(#fa)"/>
  <path d="M620,1652 V1670 H420" fill="none" stroke="#111" stroke-width="1" marker-end="url(#fa)"/>
  <path d="M300,1740 H140 V1838" fill="none" stroke="#111" stroke-width="1" marker-end="url(#fa)"/>
  <path d="M540,1740 H880 V1838" fill="none" stroke="#111" stroke-width="1" marker-end="url(#fa)"/>
  <path d="M420,1783 V1838" fill="none" stroke="#111" stroke-width="1" marker-end="url(#fa)"/>
  <path d="M140,1892 V1928" fill="none" stroke="#111" stroke-width="1" marker-end="url(#fa)"/>
  <path d="M880,1892 V1928" fill="none" stroke="#111" stroke-width="1" marker-end="url(#fa)"/>
  <path d="M420,1892 V1932" fill="none" stroke="#111" stroke-width="1" marker-end="url(#fa)"/>
  <path d="M420,1988 V2027" fill="none" stroke="#111" stroke-width="1" marker-end="url(#fa)"/>
  <path d="M540,2070 H775" fill="none" stroke="#111" stroke-width="1" marker-end="url(#fa)"/>
  <path d="M420,2113 V2150" fill="none" stroke="#111" stroke-width="1" marker-end="url(#fa)"/>
  <path d="M420,2200 V2257" fill="none" stroke="#111" stroke-width="1" marker-end="url(#fa)"/>
  <path d="M620,2222 V2240 H420" fill="none" stroke="#111" stroke-width="1" marker-end="url(#fa)"/>
  <path d="M880,2098 V2410 H530" fill="none" stroke="#111" stroke-width="1" marker-end="url(#fa)"/>
  <path d="M300,2300 H245 V1942" fill="none" stroke="#111" stroke-width="1" marker-end="url(#fa)"/>
  <path d="M420,2343 V2382" fill="none" stroke="#111" stroke-width="1" marker-end="url(#fa)"/>
  <path d="M420,2438 V2475" fill="none" stroke="#111" stroke-width="1" marker-end="url(#fa)"/>
  <path d="M225,1185 H301" fill="none" stroke="#111" stroke-width="1" marker-end="url(#fa)"/>
  <path d="M1025,315 H989" fill="none" stroke="#111" stroke-width="1" marker-end="url(#fa)"/>
  <path d="M225,1625 H301" fill="none" stroke="#111" stroke-width="1" marker-end="url(#fa)"/>
  <path d="M605,1960 H539" fill="none" stroke="#111" stroke-width="1" marker-end="url(#fa)"/>
  <path d="M315,2410 H229" fill="none" stroke="#111" stroke-width="1" marker-end="url(#fa)"/>
  <rect x="345.0" y="18.0" width="150.0" height="40.0" rx="20.0" fill="#fff" stroke="#111" stroke-width="1.3"/>
  <text x="420.0" y="41.6" text-anchor="middle" font-family="Segoe UI, Calibri, Arial, sans-serif" font-size="10" fill="#111" font-weight="600">Start</text>
  <rect x="315.0" y="87.0" width="210.0" height="50.0" fill="#fff" stroke="#111" stroke-width="1"/>
  <text x="420.0" y="115.6" text-anchor="middle" font-family="Segoe UI, Calibri, Arial, sans-serif" font-size="10" fill="#111">Launch GovPulse</text>
  <polygon points="300.0,205.0 420.0,162.0 540.0,205.0 420.0,248.0" fill="#fff" stroke="#111" stroke-width="1"/>
  <text x="420.0" y="202.3" text-anchor="middle" font-family="Segoe UI, Calibri, Arial, sans-serif" font-size="10" fill="#111">First</text>
  <text x="420.0" y="214.8" text-anchor="middle" font-family="Segoe UI, Calibri, Arial, sans-serif" font-size="10" fill="#111">launch?</text>
  <rect x="35.0" y="180.0" width="210.0" height="50.0" fill="#fff" stroke="#111" stroke-width="1"/>
  <text x="140.0" y="208.6" text-anchor="middle" font-family="Segoe UI, Calibri, Arial, sans-serif" font-size="10" fill="#111">Show intro screens</text>
  <polygon points="300.0,320.0 420.0,277.0 540.0,320.0 420.0,363.0" fill="#fff" stroke="#111" stroke-width="1"/>
  <text x="420.0" y="317.4" text-anchor="middle" font-family="Segoe UI, Calibri, Arial, sans-serif" font-size="10" fill="#111">Saved</text>
  <text x="420.0" y="329.9" text-anchor="middle" font-family="Segoe UI, Calibri, Arial, sans-serif" font-size="10" fill="#111">session?</text>
  <rect x="775.0" y="287.0" width="210.0" height="56.0" fill="#fff" stroke="#111" stroke-width="1"/>
  <text x="880.0" y="312.4" text-anchor="middle" font-family="Segoe UI, Calibri, Arial, sans-serif" font-size="10" fill="#111">Read profile and</text>
  <text x="880.0" y="324.9" text-anchor="middle" font-family="Segoe UI, Calibri, Arial, sans-serif" font-size="10" fill="#111">resolve role_id</text>
  <polygon points="760.0,415.0 880.0,372.0 1000.0,415.0 880.0,458.0" fill="#fff" stroke="#111" stroke-width="1"/>
  <text x="880.0" y="412.4" text-anchor="middle" font-family="Segoe UI, Calibri, Arial, sans-serif" font-size="10" fill="#111">Account</text>
  <text x="880.0" y="424.9" text-anchor="middle" font-family="Segoe UI, Calibri, Arial, sans-serif" font-size="10" fill="#111">deactivated?</text>
  <circle cx="1110.0" cy="415.0" r="17.0" fill="#fff" stroke="#111" stroke-width="1.3"/>
  <text x="1110.0" y="418.6" text-anchor="middle" font-family="Segoe UI, Calibri, Arial, sans-serif" font-size="11" fill="#111" font-weight="600">A</text>
  <rect x="775.0" y="480.0" width="210.0" height="50.0" fill="#fff" stroke="#111" stroke-width="1"/>
  <text x="880.0" y="508.6" text-anchor="middle" font-family="Segoe UI, Calibri, Arial, sans-serif" font-size="10" fill="#111">Sign out saved session</text>
  <rect x="315.0" y="575.0" width="210.0" height="50.0" fill="#fff" stroke="#111" stroke-width="1"/>
  <text x="420.0" y="603.6" text-anchor="middle" font-family="Segoe UI, Calibri, Arial, sans-serif" font-size="10" fill="#111">Display login screen</text>
  <circle cx="245.0" cy="600.0" r="17.0" fill="#fff" stroke="#111" stroke-width="1.3"/>
  <text x="245.0" y="603.6" text-anchor="middle" font-family="Segoe UI, Calibri, Arial, sans-serif" font-size="11" fill="#111" font-weight="600">B</text>
  <polygon points="300.0,700.0 420.0,657.0 540.0,700.0 420.0,743.0" fill="#fff" stroke="#111" stroke-width="1"/>
  <text x="420.0" y="697.4" text-anchor="middle" font-family="Segoe UI, Calibri, Arial, sans-serif" font-size="10" fill="#111">Continue</text>
  <text x="420.0" y="709.9" text-anchor="middle" font-family="Segoe UI, Calibri, Arial, sans-serif" font-size="10" fill="#111">as guest?</text>
  <rect x="35.0" y="765.0" width="210.0" height="50.0" fill="#fff" stroke="#111" stroke-width="1"/>
  <text x="140.0" y="793.6" text-anchor="middle" font-family="Segoe UI, Calibri, Arial, sans-serif" font-size="10" fill="#111">Open guest session</text>
  <rect x="35.0" y="853.0" width="210.0" height="54.0" fill="#fff" stroke="#111" stroke-width="1"/>
  <line x1="44.0" y1="853.0" x2="44.0" y2="907.0" stroke="#111"/>
  <line x1="236.0" y1="853.0" x2="236.0" y2="907.0" stroke="#111"/>
  <text x="140.0" y="877.4" text-anchor="middle" font-family="Segoe UI, Calibri, Arial, sans-serif" font-size="10" fill="#111" font-weight="600">Browse news feed</text>
  <text x="140.0" y="889.9" text-anchor="middle" font-family="Segoe UI, Calibri, Arial, sans-serif" font-size="10" fill="#111" font-weight="600">and events (read only)</text>
  <polygon points="20.0,975.0 140.0,932.0 260.0,975.0 140.0,1018.0" fill="#fff" stroke="#111" stroke-width="1"/>
  <text x="140.0" y="978.6" text-anchor="middle" font-family="Segoe UI, Calibri, Arial, sans-serif" font-size="10" fill="#111">Sign in?</text>
  <rect x="65.0" y="1055.0" width="150.0" height="40.0" rx="20.0" fill="#fff" stroke="#111" stroke-width="1.3"/>
  <text x="140.0" y="1078.6" text-anchor="middle" font-family="Segoe UI, Calibri, Arial, sans-serif" font-size="10" fill="#111" font-weight="600">End</text>
  <circle cx="290.0" cy="1085.0" r="17.0" fill="#fff" stroke="#111" stroke-width="1.3"/>
  <text x="290.0" y="1088.6" text-anchor="middle" font-family="Segoe UI, Calibri, Arial, sans-serif" font-size="11" fill="#111" font-weight="600">B</text>
  <polygon points="300.0,830.0 420.0,787.0 540.0,830.0 420.0,873.0" fill="#fff" stroke="#111" stroke-width="1"/>
  <text x="420.0" y="833.6" text-anchor="middle" font-family="Segoe UI, Calibri, Arial, sans-serif" font-size="10" fill="#111">New user?</text>
  <rect x="775.0" y="803.0" width="210.0" height="54.0" fill="#fff" stroke="#111" stroke-width="1"/>
  <line x1="784.0" y1="803.0" x2="784.0" y2="857.0" stroke="#111"/>
  <line x1="976.0" y1="803.0" x2="976.0" y2="857.0" stroke="#111"/>
  <text x="880.0" y="827.4" text-anchor="middle" font-family="Segoe UI, Calibri, Arial, sans-serif" font-size="10" fill="#111" font-weight="600">Registration and</text>
  <text x="880.0" y="839.9" text-anchor="middle" font-family="Segoe UI, Calibri, Arial, sans-serif" font-size="10" fill="#111" font-weight="600">email OTP</text>
  <circle cx="1070.0" cy="830.0" r="17.0" fill="#fff" stroke="#111" stroke-width="1.3"/>
  <text x="1070.0" y="833.6" text-anchor="middle" font-family="Segoe UI, Calibri, Arial, sans-serif" font-size="11" fill="#111" font-weight="600">B</text>
  <polygon points="300.0,960.0 420.0,917.0 540.0,960.0 420.0,1003.0" fill="#fff" stroke="#111" stroke-width="1"/>
  <text x="420.0" y="957.4" text-anchor="middle" font-family="Segoe UI, Calibri, Arial, sans-serif" font-size="10" fill="#111">Forgot</text>
  <text x="420.0" y="969.9" text-anchor="middle" font-family="Segoe UI, Calibri, Arial, sans-serif" font-size="10" fill="#111">password?</text>
  <rect x="775.0" y="933.0" width="210.0" height="54.0" fill="#fff" stroke="#111" stroke-width="1"/>
  <line x1="784.0" y1="933.0" x2="784.0" y2="987.0" stroke="#111"/>
  <line x1="976.0" y1="933.0" x2="976.0" y2="987.0" stroke="#111"/>
  <text x="880.0" y="957.4" text-anchor="middle" font-family="Segoe UI, Calibri, Arial, sans-serif" font-size="10" fill="#111" font-weight="600">Password recovery</text>
  <text x="880.0" y="969.9" text-anchor="middle" font-family="Segoe UI, Calibri, Arial, sans-serif" font-size="10" fill="#111" font-weight="600">and OTP reset</text>
  <circle cx="1070.0" cy="960.0" r="17.0" fill="#fff" stroke="#111" stroke-width="1.3"/>
  <text x="1070.0" y="963.6" text-anchor="middle" font-family="Segoe UI, Calibri, Arial, sans-serif" font-size="11" fill="#111" font-weight="600">B</text>
  <polygon points="331.0,1050.0 525.0,1050.0 509.0,1100.0 315.0,1100.0" fill="#fff" stroke="#111" stroke-width="1"/>
  <text x="420.0" y="1072.3" text-anchor="middle" font-family="Segoe UI, Calibri, Arial, sans-serif" font-size="10" fill="#111">Enter username</text>
  <text x="420.0" y="1084.8" text-anchor="middle" font-family="Segoe UI, Calibri, Arial, sans-serif" font-size="10" fill="#111">and password</text>
  <rect x="305.0" y="1153.0" width="230.0" height="64.0" fill="#fff" stroke="#111" stroke-width="1"/>
  <text x="420.0" y="1176.1" text-anchor="middle" font-family="Segoe UI, Calibri, Arial, sans-serif" font-size="10" fill="#111">username-login: resolve</text>
  <text x="420.0" y="1188.6" text-anchor="middle" font-family="Segoe UI, Calibri, Arial, sans-serif" font-size="10" fill="#111">email and verify password</text>
  <text x="420.0" y="1201.1" text-anchor="middle" font-family="Segoe UI, Calibri, Arial, sans-serif" font-size="10" fill="#111">on the server</text>
  <polygon points="300.0,1300.0 420.0,1257.0 540.0,1300.0 420.0,1343.0" fill="#fff" stroke="#111" stroke-width="1"/>
  <text x="420.0" y="1303.6" text-anchor="middle" font-family="Segoe UI, Calibri, Arial, sans-serif" font-size="10" fill="#111">Authenticated?</text>
  <rect x="765.0" y="1268.0" width="230.0" height="64.0" fill="#fff" stroke="#111" stroke-width="1"/>
  <text x="880.0" y="1291.1" text-anchor="middle" font-family="Segoe UI, Calibri, Arial, sans-serif" font-size="10" fill="#111">Show error: wrong credentials,</text>
  <text x="880.0" y="1303.6" text-anchor="middle" font-family="Segoe UI, Calibri, Arial, sans-serif" font-size="10" fill="#111">deactivated, too many attempts,</text>
  <text x="880.0" y="1316.1" text-anchor="middle" font-family="Segoe UI, Calibri, Arial, sans-serif" font-size="10" fill="#111">or no connection</text>
  <circle cx="880.0" cy="1385.0" r="17.0" fill="#fff" stroke="#111" stroke-width="1.3"/>
  <text x="880.0" y="1388.6" text-anchor="middle" font-family="Segoe UI, Calibri, Arial, sans-serif" font-size="11" fill="#111" font-weight="600">B</text>
  <rect x="315.0" y="1385.0" width="210.0" height="50.0" fill="#fff" stroke="#111" stroke-width="1"/>
  <text x="420.0" y="1413.6" text-anchor="middle" font-family="Segoe UI, Calibri, Arial, sans-serif" font-size="10" fill="#111">Establish session</text>
  <polygon points="300.0,1515.0 420.0,1472.0 540.0,1515.0 420.0,1558.0" fill="#fff" stroke="#111" stroke-width="1"/>
  <text x="420.0" y="1512.3" text-anchor="middle" font-family="Segoe UI, Calibri, Arial, sans-serif" font-size="10" fill="#111">Device clock</text>
  <text x="420.0" y="1524.8" text-anchor="middle" font-family="Segoe UI, Calibri, Arial, sans-serif" font-size="10" fill="#111">valid?</text>
  <rect x="765.0" y="1487.0" width="230.0" height="56.0" fill="#fff" stroke="#111" stroke-width="1"/>
  <text x="880.0" y="1512.3" text-anchor="middle" font-family="Segoe UI, Calibri, Arial, sans-serif" font-size="10" fill="#111">Sign out and prompt to</text>
  <text x="880.0" y="1524.8" text-anchor="middle" font-family="Segoe UI, Calibri, Arial, sans-serif" font-size="10" fill="#111">correct date and time</text>
  <circle cx="880.0" cy="1600.0" r="17.0" fill="#fff" stroke="#111" stroke-width="1.3"/>
  <text x="880.0" y="1603.6" text-anchor="middle" font-family="Segoe UI, Calibri, Arial, sans-serif" font-size="11" fill="#111" font-weight="600">B</text>
  <rect x="305.0" y="1600.0" width="230.0" height="50.0" fill="#fff" stroke="#111" stroke-width="1"/>
  <text x="420.0" y="1628.6" text-anchor="middle" font-family="Segoe UI, Calibri, Arial, sans-serif" font-size="10" fill="#111">Read user_roles.role_id</text>
  <circle cx="620.0" cy="1635.0" r="17.0" fill="#fff" stroke="#111" stroke-width="1.3"/>
  <text x="620.0" y="1638.6" text-anchor="middle" font-family="Segoe UI, Calibri, Arial, sans-serif" font-size="11" fill="#111" font-weight="600">A</text>
  <polygon points="300.0,1740.0 420.0,1697.0 540.0,1740.0 420.0,1783.0" fill="#fff" stroke="#111" stroke-width="1"/>
  <text x="420.0" y="1743.6" text-anchor="middle" font-family="Segoe UI, Calibri, Arial, sans-serif" font-size="10" fill="#111">role_id?</text>
  <rect x="35.0" y="1838.0" width="210.0" height="54.0" fill="#fff" stroke="#111" stroke-width="1"/>
  <line x1="44.0" y1="1838.0" x2="44.0" y2="1892.0" stroke="#111"/>
  <line x1="236.0" y1="1838.0" x2="236.0" y2="1892.0" stroke="#111"/>
  <text x="140.0" y="1868.6" text-anchor="middle" font-family="Segoe UI, Calibri, Arial, sans-serif" font-size="10" fill="#111" font-weight="600">Administrator Console</text>
  <rect x="315.0" y="1838.0" width="210.0" height="54.0" fill="#fff" stroke="#111" stroke-width="1"/>
  <line x1="324.0" y1="1838.0" x2="324.0" y2="1892.0" stroke="#111"/>
  <line x1="516.0" y1="1838.0" x2="516.0" y2="1892.0" stroke="#111"/>
  <text x="420.0" y="1868.6" text-anchor="middle" font-family="Segoe UI, Calibri, Arial, sans-serif" font-size="10" fill="#111" font-weight="600">Citizen Shell</text>
  <rect x="775.0" y="1838.0" width="210.0" height="54.0" fill="#fff" stroke="#111" stroke-width="1"/>
  <line x1="784.0" y1="1838.0" x2="784.0" y2="1892.0" stroke="#111"/>
  <line x1="976.0" y1="1838.0" x2="976.0" y2="1892.0" stroke="#111"/>
  <text x="880.0" y="1868.6" text-anchor="middle" font-family="Segoe UI, Calibri, Arial, sans-serif" font-size="10" fill="#111" font-weight="600">Municipal Staff Console</text>
  <circle cx="140.0" cy="1945.0" r="17.0" fill="#fff" stroke="#111" stroke-width="1.3"/>
  <text x="140.0" y="1948.6" text-anchor="middle" font-family="Segoe UI, Calibri, Arial, sans-serif" font-size="11" fill="#111" font-weight="600">B</text>
  <circle cx="880.0" cy="1945.0" r="17.0" fill="#fff" stroke="#111" stroke-width="1.3"/>
  <text x="880.0" y="1948.6" text-anchor="middle" font-family="Segoe UI, Calibri, Arial, sans-serif" font-size="11" fill="#111" font-weight="600">B</text>
  <circle cx="245.0" cy="1925.0" r="17.0" fill="#fff" stroke="#111" stroke-width="1.3"/>
  <text x="245.0" y="1928.6" text-anchor="middle" font-family="Segoe UI, Calibri, Arial, sans-serif" font-size="11" fill="#111" font-weight="600">A</text>
  <rect x="305.0" y="1932.0" width="230.0" height="56.0" fill="#fff" stroke="#111" stroke-width="1"/>
  <text x="420.0" y="1957.3" text-anchor="middle" font-family="Segoe UI, Calibri, Arial, sans-serif" font-size="10" fill="#111">Watch suspensions and</text>
  <text x="420.0" y="1969.8" text-anchor="middle" font-family="Segoe UI, Calibri, Arial, sans-serif" font-size="10" fill="#111">restrictions in real time</text>
  <polygon points="300.0,2070.0 420.0,2027.0 540.0,2070.0 420.0,2113.0" fill="#fff" stroke="#111" stroke-width="1"/>
  <text x="420.0" y="2073.6" text-anchor="middle" font-family="Segoe UI, Calibri, Arial, sans-serif" font-size="10" fill="#111">Suspended?</text>
  <rect x="775.0" y="2042.0" width="210.0" height="56.0" fill="#fff" stroke="#111" stroke-width="1"/>
  <text x="880.0" y="2067.3" text-anchor="middle" font-family="Segoe UI, Calibri, Arial, sans-serif" font-size="10" fill="#111">Show blocking notice</text>
  <text x="880.0" y="2079.8" text-anchor="middle" font-family="Segoe UI, Calibri, Arial, sans-serif" font-size="10" fill="#111">and sign out</text>
  <rect x="315.0" y="2150.0" width="210.0" height="50.0" fill="#fff" stroke="#111" stroke-width="1"/>
  <text x="420.0" y="2178.6" text-anchor="middle" font-family="Segoe UI, Calibri, Arial, sans-serif" font-size="10" fill="#111">Apply feature restrictions</text>
  <circle cx="620.0" cy="2205.0" r="17.0" fill="#fff" stroke="#111" stroke-width="1.3"/>
  <text x="620.0" y="2208.6" text-anchor="middle" font-family="Segoe UI, Calibri, Arial, sans-serif" font-size="11" fill="#111" font-weight="600">B</text>
  <polygon points="300.0,2300.0 420.0,2257.0 540.0,2300.0 420.0,2343.0" fill="#fff" stroke="#111" stroke-width="1"/>
  <text x="420.0" y="2303.6" text-anchor="middle" font-family="Segoe UI, Calibri, Arial, sans-serif" font-size="10" fill="#111">Log out?</text>
  <rect x="315.0" y="2382.0" width="210.0" height="56.0" fill="#fff" stroke="#111" stroke-width="1"/>
  <text x="420.0" y="2407.3" text-anchor="middle" font-family="Segoe UI, Calibri, Arial, sans-serif" font-size="10" fill="#111">Clear session and</text>
  <text x="420.0" y="2419.8" text-anchor="middle" font-family="Segoe UI, Calibri, Arial, sans-serif" font-size="10" fill="#111">unregister push token</text>
  <rect x="345.0" y="2475.0" width="150.0" height="40.0" rx="20.0" fill="#fff" stroke="#111" stroke-width="1.3"/>
  <text x="420.0" y="2498.6" text-anchor="middle" font-family="Segoe UI, Calibri, Arial, sans-serif" font-size="10" fill="#111" font-weight="600">End</text>
  <path d="M55.0,1167.0 V1203.0 A85.0,9.0 0 0 0 225.0,1203.0 V1167.0" fill="#fff" stroke="#111" stroke-width="1"/>
  <ellipse cx="140.0" cy="1167.0" rx="85.0" ry="9.0" fill="#fff" stroke="#111" stroke-width="1"/>
  <text x="140.0" y="1187.3" text-anchor="middle" font-family="Segoe UI, Calibri, Arial, sans-serif" font-size="10" fill="#111">profiles /</text>
  <text x="140.0" y="1199.8" text-anchor="middle" font-family="Segoe UI, Calibri, Arial, sans-serif" font-size="10" fill="#111">auth users</text>
  <path d="M1025.0,297.0 V333.0 A85.0,9.0 0 0 0 1195.0,333.0 V297.0" fill="#fff" stroke="#111" stroke-width="1"/>
  <ellipse cx="1110.0" cy="297.0" rx="85.0" ry="9.0" fill="#fff" stroke="#111" stroke-width="1"/>
  <text x="1110.0" y="317.4" text-anchor="middle" font-family="Segoe UI, Calibri, Arial, sans-serif" font-size="10" fill="#111">profiles /</text>
  <text x="1110.0" y="329.9" text-anchor="middle" font-family="Segoe UI, Calibri, Arial, sans-serif" font-size="10" fill="#111">user_roles</text>
  <path d="M55.0,1607.0 V1643.0 A85.0,9.0 0 0 0 225.0,1643.0 V1607.0" fill="#fff" stroke="#111" stroke-width="1"/>
  <ellipse cx="140.0" cy="1607.0" rx="85.0" ry="9.0" fill="#fff" stroke="#111" stroke-width="1"/>
  <text x="140.0" y="1633.6" text-anchor="middle" font-family="Segoe UI, Calibri, Arial, sans-serif" font-size="10" fill="#111">user_roles</text>
  <path d="M605.0,1942.0 V1978.0 A85.0,9.0 0 0 0 775.0,1978.0 V1942.0" fill="#fff" stroke="#111" stroke-width="1"/>
  <ellipse cx="690.0" cy="1942.0" rx="85.0" ry="9.0" fill="#fff" stroke="#111" stroke-width="1"/>
  <text x="690.0" y="1962.3" text-anchor="middle" font-family="Segoe UI, Calibri, Arial, sans-serif" font-size="10" fill="#111">user_suspensions /</text>
  <text x="690.0" y="1974.8" text-anchor="middle" font-family="Segoe UI, Calibri, Arial, sans-serif" font-size="10" fill="#111">user_restrictions</text>
  <path d="M55.0,2392.0 V2428.0 A85.0,9.0 0 0 0 225.0,2428.0 V2392.0" fill="#fff" stroke="#111" stroke-width="1"/>
  <ellipse cx="140.0" cy="2392.0" rx="85.0" ry="9.0" fill="#fff" stroke="#111" stroke-width="1"/>
  <text x="140.0" y="2418.6" text-anchor="middle" font-family="Segoe UI, Calibri, Arial, sans-serif" font-size="10" fill="#111">device_tokens</text>
  <text x="272.0" y="197.0" text-anchor="middle" font-family="Segoe UI, Calibri, Arial, sans-serif" font-size="9" fill="#111">Yes</text>
  <text x="430.0" y="266.0" text-anchor="start" font-family="Segoe UI, Calibri, Arial, sans-serif" font-size="9" fill="#111">No</text>
  <text x="655.0" y="312.0" text-anchor="middle" font-family="Segoe UI, Calibri, Arial, sans-serif" font-size="9" fill="#111">Yes</text>
  <text x="430.0" y="385.0" text-anchor="start" font-family="Segoe UI, Calibri, Arial, sans-serif" font-size="9" fill="#111">No</text>
  <text x="1046.0" y="407.0" text-anchor="middle" font-family="Segoe UI, Calibri, Arial, sans-serif" font-size="9" fill="#111">No</text>
  <text x="890.0" y="472.0" text-anchor="start" font-family="Segoe UI, Calibri, Arial, sans-serif" font-size="9" fill="#111">Yes</text>
  <text x="215.0" y="692.0" text-anchor="middle" font-family="Segoe UI, Calibri, Arial, sans-serif" font-size="9" fill="#111">Yes</text>
  <text x="430.0" y="768.0" text-anchor="start" font-family="Segoe UI, Calibri, Arial, sans-serif" font-size="9" fill="#111">No</text>
  <text x="265.0" y="963.0" text-anchor="start" font-family="Segoe UI, Calibri, Arial, sans-serif" font-size="9" fill="#111">Yes</text>
  <text x="150.0" y="1040.0" text-anchor="start" font-family="Segoe UI, Calibri, Arial, sans-serif" font-size="9" fill="#111">No</text>
  <text x="655.0" y="822.0" text-anchor="middle" font-family="Segoe UI, Calibri, Arial, sans-serif" font-size="9" fill="#111">Yes</text>
  <text x="430.0" y="898.0" text-anchor="start" font-family="Segoe UI, Calibri, Arial, sans-serif" font-size="9" fill="#111">No</text>
  <text x="655.0" y="952.0" text-anchor="middle" font-family="Segoe UI, Calibri, Arial, sans-serif" font-size="9" fill="#111">Yes</text>
  <text x="430.0" y="1030.0" text-anchor="start" font-family="Segoe UI, Calibri, Arial, sans-serif" font-size="9" fill="#111">No</text>
  <text x="652.0" y="1292.0" text-anchor="middle" font-family="Segoe UI, Calibri, Arial, sans-serif" font-size="9" fill="#111">No</text>
  <text x="430.0" y="1368.0" text-anchor="start" font-family="Segoe UI, Calibri, Arial, sans-serif" font-size="9" fill="#111">Yes</text>
  <text x="652.0" y="1507.0" text-anchor="middle" font-family="Segoe UI, Calibri, Arial, sans-serif" font-size="9" fill="#111">No</text>
  <text x="430.0" y="1582.0" text-anchor="start" font-family="Segoe UI, Calibri, Arial, sans-serif" font-size="9" fill="#111">Yes</text>
  <text x="215.0" y="1732.0" text-anchor="middle" font-family="Segoe UI, Calibri, Arial, sans-serif" font-size="9" fill="#111">= 1</text>
  <text x="700.0" y="1732.0" text-anchor="middle" font-family="Segoe UI, Calibri, Arial, sans-serif" font-size="9" fill="#111">= 2</text>
  <text x="430.0" y="1812.0" text-anchor="start" font-family="Segoe UI, Calibri, Arial, sans-serif" font-size="9" fill="#111">= 3 or null</text>
  <text x="655.0" y="2062.0" text-anchor="middle" font-family="Segoe UI, Calibri, Arial, sans-serif" font-size="9" fill="#111">Yes</text>
  <text x="430.0" y="2135.0" text-anchor="start" font-family="Segoe UI, Calibri, Arial, sans-serif" font-size="9" fill="#111">No</text>
  <text x="262.0" y="2292.0" text-anchor="middle" font-family="Segoe UI, Calibri, Arial, sans-serif" font-size="9" fill="#111">No</text>
  <text x="430.0" y="2365.0" text-anchor="start" font-family="Segoe UI, Calibri, Arial, sans-serif" font-size="9" fill="#111">Yes</text>
  <text x="263.0" y="1177.0" text-anchor="middle" font-family="Segoe UI, Calibri, Arial, sans-serif" font-size="9" fill="#111">read</text>
  <text x="1007.0" y="307.0" text-anchor="middle" font-family="Segoe UI, Calibri, Arial, sans-serif" font-size="9" fill="#111">read</text>
  <text x="263.0" y="1617.0" text-anchor="middle" font-family="Segoe UI, Calibri, Arial, sans-serif" font-size="9" fill="#111">read</text>
  <text x="572.0" y="1952.0" text-anchor="middle" font-family="Segoe UI, Calibri, Arial, sans-serif" font-size="9" fill="#111">read</text>
  <text x="272.0" y="2402.0" text-anchor="middle" font-family="Segoe UI, Calibri, Arial, sans-serif" font-size="9" fill="#111">delete</text>
</svg>
